<svg xmlns="http://www.w3.org/2000/svg" xmlns:xlink="http://www.w3.org/1999/xlink" width="1480px" height="1000px" viewBox="0 0 1480 1000" preserveAspectRatio="xMidYMid meet" ><rect id="svgEditorBackground" x="0" y="0" width="1480" height="1000" style="fill: none; stroke: none;"/><defs id="svgEditorDefs"><polygon id="svgEditorIconDefs" style="fill:rosybrown;"/><polygon id="svgEditorShapeDefs" style="fill:rosybrown;stroke:black;vector-effect:non-scaling-stroke;stroke-width:1px;"/><linearGradient id="lgrd3-fr-h"><stop offset="0%" stop-color="blue"/><stop offset="50%" stop-color="black" stop-opacity="0"/><stop offset="100%" stop-color="red"/></linearGradient><linearGradient gradientUnits="objectBoundingBox" id="lgrd2-fire" spreadMethod="pad" x1="0%" x2="100%" y1="0%" y2="0%"><stop offset="0%" style="stop-color:rgb(255,255,0);stop-opacity:1"/><stop offset="100%" style="stop-color:rgb(255,0,0);stop-opacity:1"/></linearGradient><linearGradient gradientUnits="objectBoundingBox" id="lgrd2-b" spreadMethod="pad" x1="0" x2="100%" y1="0" y2="0"><stop offset="0%" stop-color="#BBC42A"/><stop offset="100%" stop-color="#ED6E46"/></linearGradient><linearGradient gradientUnits="objectBoundingBox" id="lgrd2-b-reflect" spreadMethod="reflect" x1="0%" x2="10%" y1="0%" y2="10%"><stop offset="5%" stop-color="#babc91" stop-opacity="1"/><stop offset="95%" stop-color="#c8d591" stop-opacity="1"/></linearGradient><linearGradient gradientUnits="objectBoundingBox" id="lgrd2-peachpuff-sienna-h" spreadMethod="pad" x1="0%" x2="100%" y1="0%" y2="0%"><stop offset="0%" style="stop-color:peachpuff;  stop-opacity:1;"/><stop offset="100%" style="stop-color:sienna;  stop-opacity:1"/></linearGradient><linearGradient gradientUnits="objectBoundingBox" id="lrgd2-e1" spreadMethod="pad" x1="0%" x2="100%" y1="0%" y2="0%"><stop offset="0%" stop-color="lightblue"/><stop offset="100%" stop-color="#ef5b2b"/></linearGradient></defs><circle id="e1_circle" cx="456" cy="330" style="stroke:url(#lgrd2-b); stroke-width: 45px;fill:none;" r="157.61" transform="matrix(1 0 0 1 0 0)"/><circle id="e2_circle" cx="772" cy="333" style="stroke:url(#lrgd2-e1); stroke-width: 45px;fill:none;" r="157.61" transform="matrix(1 0 0 1 0 -3)"/><path d="M-13.370370370370338,-17.962962962962976v-3.0000000000000036h-1h1v-2.9999999999999964l4.999999999999977,2.9999999999999964ZM-8.37037037037036,-20.962962962962976a0.5,0.5,0,0,0,0.9999999999999982,0a0.5,0.5,0,0,0,-1,0ZM-7.3703703703703605,-20.962962962962976h1Z" style="fill:rosybrown; stroke:black; vector-effect:non-scaling-stroke;stroke-width:1px;" id="e4_shape" transform="matrix(13.5 0 0 13.5 601 459)"/><path d="M9.962962962963005,4.851851851851849v-3h-1h1v-3.000000000000001l5,3.000000000000001ZM14.962962962963005,1.8518518518518499a0.5,0.5,0,0,0,1,0a0.5,0.5,0,0,0,-1,0ZM15.962962962963005,1.8518518518518499h1Z" style="fill:rosybrown; stroke:black; vector-effect:non-scaling-stroke;stroke-width:1px;" id="e5_shape" transform="matrix(13.5 0 0 13.5 597 459)"/><path d="M9.14814814814819,4.703703703703717v-3h-1h1.0000000000000018v-3.0000000000000036l4.999999999999998,3.0000000000000036ZM14.14814814814819,1.7037037037037255a0.5,0.5,0,0,0,0.9999999999999964,0a0.5,0.5,0,0,0,-1,0ZM15.148148148148186,1.7037037037037255h1.0000000000000018Z" style="fill:rosybrown; stroke:black; vector-effect:non-scaling-stroke;stroke-width:1px;" id="e6_shape" transform="matrix(-13.5 0 0 13.5 603 462)"/><path d="M-15.074074074073602,-18.111111111111164v-3h-0.9999999999999982h0.9999999999999982v-3l5.000000000000005,3ZM-10.074074074073597,-21.111111111111164a0.5,0.5,0,0,0,1,0a0.5,0.5,0,0,0,-1,0ZM-9.074074074073598,-21.111111111111164h0.9999999999999982Z" style="fill:rosybrown; stroke:black; vector-effect:non-scaling-stroke;stroke-width:1px;" id="e7_shape" transform="matrix(-13.5 0 0 13.5 603 459)"/></svg>